PathFileType	4	(X/Y/Z)	Apose_0-49.trc
DataRate	CameraRate	NumFrames	NumMarkers	Units	OrigDataRate	OrigDataStartFrame	OrigNumFrames
30	30	5	22	m	30	9	49
Frame#	Time	Hip			RHip			RKnee			RAnkle			RBigToe			RSmallToe			RHeel			LHip			LKnee			LAnkle			LBigToe			LSmallToe			LHeel			Neck			Head			Nose			RShoulder			RElbow			RWrist			LShoulder			LElbow			LWrist		
		X1	Y1	Z1	X2	Y2	Z2	X3	Y3	Z3	X4	Y4	Z4	X5	Y5	Z5	X6	Y6	Z6	X7	Y7	Z7	X8	Y8	Z8	X9	Y9	Z9	X10	Y10	Z10	X11	Y11	Z11	X12	Y12	Z12	X13	Y13	Z13	X14	Y14	Z14	X15	Y15	Z15	X16	Y16	Z16	X17	Y17	Z17	X18	Y18	Z18	X19	Y19	Z19	X20	Y20	Z20	X21	Y21	Z21	X22	Y22	Z22
10	0.3333333333333333	0.6675821594653215	0.9029117592590535	0.32407624931470885	0.662555852168138	0.8716800717339092	0.23611813269705437	0.654240654605038	0.49597539344690744	0.22725548275352012	0.699314710933757	0.1127713873756899	0.23181353570863794	0.5194090658273929	0.033067410394571874	0.22106662502194174	0.5590333962224633	0.026560879321905713	0.16089249312213127	0.7358501218743704	0.04172800124836597	0.2468691471208153	0.6788558972066472	0.8725547368346903	0.42194574452626044	0.667061799192049	0.4921894108761525	0.41358554708586254	0.7182224424637158	0.11068222633841562	0.40443867231957714	0.5487846224038063	0.021765118536046367	0.4136391223552515	0.5798115804417904	0.024904248920773978	0.4751839482106168	0.7690669148206594	0.03662965151227653	0.39782394436128243	0.6600844621395495	1.487975980831668	0.3295657882386482	0.5612799308718651	1.7308308399680523	0.3858496638277135	0.5083354695403931	1.6047798379188556	0.3444501340638047	0.6826439011198909	1.4218855303380415	0.15242215304719373	0.7388830785676441	1.3288306563518222	-0.08204833437882528	0.6835498818413679	1.3205768029399565	-0.3392055215926326	0.6989819014466699	1.4269873299626403	0.4996981669186154	0.7090453884867864	1.3263898518861268	0.7345468736463788	0.6800570731047332	1.3350166958509282	0.987168296156461
11	0.3666666666666666	0.6676201294781472	0.9027103020245911	0.32351872582651725	0.6628750402164418	0.8709890279321127	0.23525991014330405	0.6550023380290171	0.4959103979049454	0.22723527756613227	0.6991330926968155	0.1126430599437054	0.2315957050133103	0.5196764035047067	0.033106103464146296	0.22149148609339006	0.5598660375379907	0.02624713662820606	0.16152198467199672	0.7360022166980672	0.041061948720007575	0.24584759643430193	0.679000347110276	0.8715115527951569	0.4205364021206968	0.6662788677435505	0.4927896703010787	0.41262889314380863	0.7183990607789642	0.11012946444652903	0.404505292923594	0.5490361792730432	0.02187558073674309	0.4141689248584734	0.5796415685937845	0.02484815001830776	0.47526397319464997	0.7690452057672519	0.03642391004365845	0.39777455399700173	0.6594230660217314	1.4884694574151207	0.32958426265889995	0.571684411347189	1.7291686339392536	0.37654932698887955	0.5051813358263239	1.6047087059334915	0.34593740421127145	0.6824546901531331	1.421902713552322	0.1520146020907721	0.73856289867367	1.329116119733554	-0.0827259162906318	0.6845758974606042	1.3215748859042824	-0.33923391967480837	0.696723937365144	1.426295371247037	0.49958390498633054	0.7090762055359541	1.3263985350250158	0.7341186020598754	0.6809250129743128	1.3336759429861964	0.9865270761968896
12	0.4	0.6675883452926497	0.9023818946770233	0.3227337895613337	0.6631824811627357	0.8698288292433715	0.23411725081607374	0.6555514953342421	0.4957091030798408	0.22726163382202086	0.6992074262905512	0.11260905274477616	0.23172113611535983	0.5201720763053033	0.03287277036856425	0.22200586242281423	0.5611133445282658	0.02552571074381852	0.1623043623868395	0.7362358195756141	0.0401863796372415	0.24474070237541395	0.679129021106816	0.8699636612883206	0.4186121484529396	0.665787338876502	0.4932167412309525	0.41166035658770234	0.7183412108573031	0.10978189412126761	0.40454164225713257	0.5494681928096513	0.022006611336661194	0.4149521712068075	0.579445548517348	0.024719586818266786	0.4752616048100096	0.7691849605791669	0.03627175358017996	0.39803838838358296	0.6588686400161995	1.4892428488902285	0.32954887093847984	0.586263449502983	1.7268197554123161	0.3636816657643684	0.5038605727195941	1.6045801797617238	0.3458424597314473	0.6825366728449017	1.4218422012358627	0.1515733844235297	0.7381889202762506	1.3293797683222122	-0.08365533078636553	0.6861661105565865	1.3227887371545337	-0.3392274088650271	0.6939990570288223	1.4251609518562158	0.4998711643860169	0.7092156721558429	1.3264942935068023	0.7336626773618159	0.6824356845871399	1.3318058102370796	0.9857701243257954
13	0.4333333333333333	0.6674926421698719	0.9019482120241519	0.321769897157781	0.6634147183009966	0.868309766959026	0.2328214813937163	0.6558002775228857	0.4954189557549001	0.22736999206672842	0.6995836044217314	0.11260059389097335	0.23218450172151217	0.5208405028814694	0.032358928656942995	0.22249587922027594	0.5626544205939684	0.024478955196862464	0.1631170277582694	0.7365983562985263	0.03922951245879394	0.24388175863682832	0.6791608482173318	0.8680869452666244	0.41644168088413963	0.6659602468491329	0.4934273805443161	0.41079978685037866	0.7180905310320774	0.10972231170381502	0.40453735987487144	0.5501145656539668	0.022104142018947354	0.4158825373864882	0.5793421165471985	0.024574485087331982	0.47519046143642696	0.7694455432268607	0.036228844307930254	0.3985333765668302	0.6583866834025469	1.4901647526399606	0.3295006914621611	0.6024202680179273	1.724107205921431	0.34937977963758227	0.504289713136725	1.6043790802427786	0.34440946875644185	0.6827872192709795	1.421762954329777	0.15115586694990574	0.7376906035777862	1.329598308628597	-0.08473358533717282	0.6882057587617885	1.3241537106975803	-0.33926272672860025	0.691519025939365	1.4239324870215881	0.5003525246402548	0.7093241166198481	1.326680314404045	0.7333111748453461	0.6843196322764694	1.3297568647973643	0.9850090437844496
14	0.4666666666666667	0.6673606074662742	0.9014823383748618	0.320772790192336	0.6635218458287061	0.8667470892524903	0.23155542302864746	0.6556211395908501	0.49499618380912425	0.2274555657492809	0.7001539556387394	0.11249624690103263	0.23274944717098456	0.5214812597528736	0.031664550647323375	0.22288227777656888	0.5641170191171487	0.023347897310051113	0.16381798805631706	0.7370772009444865	0.0384423451137292	0.24355129280544444	0.6790800133869722	0.8662697103576426	0.4144724042751321	0.6670930476128675	0.4934979794375277	0.4101117453828885	0.7177905755856697	0.10993496446403504	0.4044588295146925	0.550790144406088	0.022230467094745708	0.4168168146276855	0.5794565561315446	0.02444502161391556	0.4750909595975466	0.7697473242696005	0.036271969877358916	0.39900482167485546	0.6579286795482188	1.4910060982548492	0.329438571709038	0.6164371363793625	1.7216219142422	0.33671762306106956	0.505975075712459	1.6041861992718696	0.3421969351230722	0.6835717937213636	1.4218558662193885	0.1507508320352584	0.7370722281840474	1.3297424508689368	-0.08576874615210994	0.6901806318690926	1.3254405461104197	-0.33935291261618933	0.6899485156779334	1.423020586426194	0.5006547849939881	0.709239894644273	1.3268916054240654	0.7331548822441187	0.6860560733149081	1.3279962147707791	0.9843679519121935
